<svg width="410" height="404" viewBox="0 0 410 404" fill="none" xmlns="http://www.w3.org/2000/svg">
<path d="M399.641 59.5246L216.246 388.598C210.708 398.5 197.292 398.5 191.754 388.598L8.35935 59.5246C2.20142 48.6141 10.1374 35 22.6053 35H385.395C397.863 35 405.799 48.6141 399.641 59.5246Z" fill="url(#paint0_linear)"/>
<path d="M292.965 0.488493L151.461 285.213C149.235 289.577 142.764 289.577 140.538 285.213L92.9675 186.43C90.7956 182.188 94.9031 177.377 99.5188 178.658L184.5 202.87C189.373 204.225 193.133 199.044 190.763 194.475L115.5 45.0003C112.821 39.6133 118.878 33.8884 123.837 37.0815L208.5 93.0003C213.094 96.0055 218.882 92.0723 217.467 86.7682L195.5 4.00034C194.12 -1.14282 200.478 -4.53066 203.751 0.0981053L292.965 132.389C295.696 136.441 302.039 135.582 303.369 130.86L332.5 23.0003C333.912 17.8001 340.54 16.2134 343.315 20.648L406.5 121.5C409.21 125.829 404.007 130.688 399.508 128.128L312.5 78.0003C307.507 75.1591 302.032 80.4801 304.333 85.5466L343.5 171.5C345.229 175.389 340.351 178.956 337.232 175.954L248 94.5003C243.844 90.7144 237.073 93.9697 238.15 99.2316L257.5 192C258.789 198.47 251.048 202.459 247.27 197.292L176.5 105.5C173.222 101.103 166.576 103.1 166.617 108.564L167.5 222.5C167.535 227.239 161.008 229.348 158.466 225.258L100.5 132.5C97.3701 127.402 90 130.14 91.4275 136.034L122.5 266.5C123.864 272.02 116.955 275.494 113.573 270.887L18.5 139C15.2035 134.501 8 136.7 8 142.298V263.5C8 268.194 1.48849 270.357 -1 266.5" stroke="white" stroke-opacity="0.6"/>
<defs>
<linearGradient id="paint0_linear" x1="6" y1="33" x2="235" y2="344" gradientUnits="userSpaceOnUse">
<stop stop-color="#FFEA83"/>
<stop offset="0.0833333" stop-color="#FFDD35"/>
<stop offset="1" stop-color="#FFA800"/>
</linearGradient>
</defs>
</svg>
